#!OML:ASF H:\Punching\Project 1\Capture day 1\Session 1\female.ASF
:FULLY-SPECIFIED
:DEGREES
1750
root 1.47273 15.1562 4.9783 -16.8449 -23.252 5.19208
lowerback 3.13734 1.29469 9.36455
upperback 0.62926 1.97689 -5.3104
thorax -0.592721 0.993873 -11.0565
lowerneck -1.05946 11.9348 17.2286
upperneck 41.3278 20.2736 -11.0061
head 19.3143 9.87715 -4.70468
rclavicle 2.32578e-014 -9.14409e-015
rhumerus 11.9222 29.665 -68.3886
rradius 126.689
rwrist -13.1818
rhand -31.557 8.60699
rfingers 7.12502
rthumb -4.821 -21.3182
lclavicle 2.32578e-014 -9.14409e-015
lhumerus -16.2589 -10.7283 64.0985
lradius 142.273
lwrist 4.52062
lhand -25.1725 3.13551
lfingers 7.12502
lthumb 1.34501 33.111
rfemur -1.08418 10.369 26.243
rtibia 39.0887
rfoot -17.1781 -5.84563
rtoes 12.462
lfemur -82.1226 20.5941 -10.7786
ltibia 78.4084
lfoot -147.427 189.805
ltoes -4.49577
1751
root 1.44961 15.1498 5.03743 -17.1142 -23.997 5.58828
lowerback 2.71846 1.37205 9.48083
upperback 0.582028 2.0502 -5.47254
thorax -0.376608 1.04258 -11.2958
lowerneck -0.511996 12.0637 17.3747
upperneck 41.3885 20.5593 -11.0535
head 19.3247 10.032 -4.7274
rclavicle -3.91606e-014 -2.46493e-014
rhumerus 11.4493 30.8024 -69.9062
rradius 126.536
rwrist -12.7829
rhand -31.7331 8.81811
rfingers 7.12502
rthumb -4.99104 -21.1031
lclavicle -3.91606e-014 -2.46493e-014
lhumerus -17.3555 -10.2381 63.9651
lradius 142.309
lwrist 4.52461
lhand -25.1455 2.96679
lfingers 7.12502
lthumb 1.37106 32.9421
rfemur -0.583626 10.7333 26.0919
rtibia 38.708
rfoot -17.2238 -5.49702
rtoes 12.675
lfemur -80.4488 20.4476 -8.98736
ltibia 72.5713
lfoot -147.698 191.981
ltoes -3.57073
1752
root 1.42175 15.1793 5.07424 -17.3312 -24.7243 5.95659
lowerback 2.30593 1.442 9.61735
upperback 0.495981 2.11451 -5.62708
thorax -0.206226 1.08225 -11.5402
lowerneck 0.0492102 12.1881 17.5298
upperneck 41.462 20.8401 -11.0973
head 19.3418 10.1875 -4.75299
rclavicle -2.87244e-014 1.59028e-015
rhumerus 10.8912 31.929 -71.4209
rradius 126.384
rwrist -12.5243
rhand -31.9136 8.99573
rfingers 7.12502
rthumb -5.1653 -20.9213
lclavicle -2.87244e-014 1.59028e-015
lhumerus -18.4781 -9.78007 63.8821
lradius 142.329
lwrist 4.48996
lhand -25.0935 2.92141
lfingers 7.12502
lthumb 1.42131 32.8964
rfemur -0.121389 11.0948 25.9752
rtibia 38.2026
rfoot -17.1478 -5.14179
rtoes 12.8647
lfemur -78.1701 20.0481 -6.81022
ltibia 66.4223
lfoot -148.475 194.526
ltoes -2.3373
1753
root 1.39441 15.2095 5.10706 -17.5174 -25.433 6.29867
lowerback 1.9202 1.50182 9.77189
upperback 0.381042 2.16731 -5.76943
thorax -0.0838324 1.1117 -11.7836
lowerneck 0.614706 12.3095 17.687
upperneck 41.5489 21.119 -11.1386
head 19.3685 10.3434 -4.77961
rclavicle -2.93207e-014 1.39149e-014
rhumerus 10.267 33.033 -72.897
rradius 126.24
rwrist -12.4374
rhand -32.0505 9.14989
rfingers 7.12502
rthumb -5.29745 -20.7639
lclavicle -2.93207e-014 1.39149e-014
lhumerus -19.6124 -9.35645 63.857
lradius 142.332
lwrist 4.42546
lhand -25.0364 2.97237
lfingers 7.12502
lthumb 1.47645 32.947
rfemur 0.290657 11.4289 25.8689
rtibia 37.7021
rfoot -17.0487 -4.77008
rtoes 13.0317
lfemur -75.5817 19.2415 -4.07715
ltibia 60.281
lfoot -149.818 197.686
ltoes -0.525097
1754
root 1.36848 15.2386 5.13715 -17.695 -26.1177 6.6204
lowerback 1.56657 1.5498 9.93887
upperback 0.257207 2.20627 -5.89782
thorax 0.00751817 1.13165 -12.0207
lowerneck 1.16366 12.4291 17.8454
upperneck 41.6437 21.3976 -11.1853
head 19.4086 10.4984 -4.80878
rclavicle 3.19049e-014 1.59028e-014
rhumerus 9.61575 34.0911 -74.2888
rradius 126.103
rwrist -12.5234
rhand -32.1206 9.31101
rfingers 7.12502
rthumb -5.36516 -20.6011
lclavicle 3.19049e-014 1.59028e-014
lhumerus -20.7191 -8.95277 63.8842
lradius 142.291
lwrist 4.33038
lhand -25.0299 3.01047
lfingers 7.12502
lthumb 1.48268 32.9851
rfemur 0.726057 11.7167 25.7611
rtibia 37.0812
rfoot -16.8577 -4.35307
rtoes 13.1778
lfemur -72.6526 17.765 -0.534144
ltibia 54.2457
lfoot -152.06 201.862
ltoes 2.34529
1755
root 1.34493 15.2644 5.16659 -17.8855 -26.7753 6.92967
lowerback 1.25976 1.57953 10.1032
upperback 0.128961 2.22367 -6.00335
thorax 0.0607703 1.13772 -12.2328
lowerneck 1.70656 12.5485 17.9987
upperneck 41.7381 21.684 -11.2482
head 19.4574 10.6546 -4.8435
rclavicle 1.49089e-014 1.59028e-014
rhumerus 8.95741 35.1107 -75.5577
rradius 125.971
rwrist -12.7587
rhand -32.1272 9.51775
rfingers 7.12502
rthumb -5.37152 -20.3942
lclavicle 1.49089e-014 1.59028e-014
lhumerus -21.8147 -8.55912 63.9688
lradius 142.228
lwrist 4.20577
lhand -25.0756 3.08174
lfingers 7.12502
lthumb 1.43855 33.0566
rfemur 1.1216 11.9493 25.6404
rtibia 36.5523
rfoot -16.7072 -3.91067
rtoes 13.3004
lfemur -69.4245 15.1636 4.2145
ltibia 48.617
lfoot -156.224 207.698
ltoes 7.33806
1756
root 1.32451 15.2848 5.1975 -18.1061 -27.4002 7.23636
lowerback 1.0016 1.58894 10.2534
upperback 0.00782815 2.21677 -6.0867
thorax 0.0855307 1.12963 -12.4133
lowerneck 2.23293 12.6686 18.1522
upperneck 41.8307 21.9814 -11.3358
head 19.5209 10.8129 -4.8871
rclavicle 5.06901e-014 -1.98785e-015
rhumerus 8.32924 36.077 -76.6696
rradius 125.826
rwrist -13.0796
rhand -32.0574 9.72712
rfingers 7.12502
rthumb -5.30414 -20.1865
lclavicle 5.06901e-014 -1.98785e-015
lhumerus -22.8843 -8.16044 64.1009
lradius 142.148
lwrist 4.06399
lhand -25.1849 3.14244
lfingers 7.12502
lthumb 1.33303 33.118
rfemur 1.47338 12.1249 25.4962
rtibia 36.1697
rfoot -16.6382 -3.45106
rtoes 13.4221
lfemur -66.0006 10.6145 10.7929
ltibia 43.6376
lfoot -165.765 216.085
ltoes 17.0044
